<?xml version="1.0" encoding="utf-8"?>
<!-- Generator: Adobe Illustrator 17.0.2, SVG Export Plug-In . SVG Version: 6.00 Build 0)  -->
<!DOCTYPE svg PUBLIC "-//W3C//DTD SVG 1.1//EN" "http://www.w3.org/Graphics/SVG/1.1/DTD/svg11.dtd">
<svg version="1.1" id="Layer_1" xmlns="http://www.w3.org/2000/svg" xmlns:xlink="http://www.w3.org/1999/xlink" x="0px" y="0px"
	 width="1180px" height="6171px" viewBox="0 0 1180 6171" enable-background="new 0 0 1180 6171" xml:space="preserve">
<g>
	<defs>
		<rect id="SVGID_1_" width="1180" height="6171"/>
	</defs>
	<clipPath id="SVGID_2_">
		<use xlink:href="#SVGID_1_"  overflow="visible"/>
	</clipPath>
	<g clip-path="url(#SVGID_2_)">
		<rect x="0.5" y="1126.5" fill="#6DCFF6" stroke="#5FCCFF" stroke-miterlimit="10" width="1175" height="4604"/>
		<line fill="none" stroke="#ECF0F1" stroke-miterlimit="10" x1="749" y1="5635.5" x2="805" y2="5635.5"/>
		<g>
			<polygon fill="#FFFFFF" stroke="#ECF0F1" stroke-miterlimit="10" points="749.5,5603.5 838.378,5603.5 870.5,5635.868 
				870.5,5699.5 749.5,5699.5 			"/>
			<polyline fill="none" stroke="#ECF0F1" stroke-miterlimit="10" points="837.309,5604.173 804.5,5636.412 804.5,5699 			"/>
			<polygon fill="#ECF0F1" points="837.548,5604 749,5604 749,5636 805.802,5636 			"/>
		</g>
		<rect x="608" y="5694" fill="#C7B299" width="351" height="36"/>
		<g>
			<rect x="679" y="5763" fill="#FFFFFF" width="70" height="206"/>
			<rect x="663" y="5969" fill="#E74C3C" width="101" height="22"/>
			<rect x="684" y="5991" fill="#E74C3C" width="58" height="36"/>
			<rect x="694" y="5996" fill="#FFF55B" width="36" height="25"/>
			<polygon fill="#E74C3C" points="712.965,6053.966 727.042,6040.483 741.119,6027 712.965,6027 684.811,6027 698.888,6040.483 			
				"/>
			<polygon fill="#FFFFFF" stroke="#ECF0F1" stroke-miterlimit="10" points="749.5,5856.5 838.378,5856.5 870.5,5825.261 
				870.5,5761.5 749.5,5761.5 			"/>
			<polyline fill="none" stroke="#ECF0F1" stroke-miterlimit="10" points="837.309,5857.392 804.5,5824.717 804.5,5763 			"/>
			<line fill="none" stroke="#ECF0F1" stroke-miterlimit="10" x1="749" y1="5825.5" x2="805" y2="5825.5"/>
			<rect x="608" y="5731" fill="#C7B299" width="351" height="37"/>
			<rect x="608" y="5749" fill="#27AE60" width="351" height="19"/>
			<rect x="678" y="5917" fill="#E74C3C" width="71" height="23"/>
			<rect x="678" y="5875" fill="#E74C3C" width="71" height="22"/>
			<polygon fill="#ECF0F1" points="837.548,5857 749,5857 749,5825 805.802,5825 			"/>
		</g>
		<rect y="5729" opacity="0.9" fill="#34495E" width="1180" height="442"/>
		<text transform="matrix(1 0 0 1 173.3257 5437.7227)" fill="#FFFFFF" font-family="'Lato-Hairline'" font-size="70.6903">Lighthouse</text>
		<text transform="matrix(1 0 0 1 173.3257 5511.79)" fill="#FFFFFF" font-family="'Lato-Light'" font-size="24.0046">Rocket lounch your idea in no time.</text>
		<g>
			<path fill="#E94B35" d="M742.061,5503.834c7.168-25.866,5.735-62.986-28.897-107.823c-0.197,0.249-0.084,0.25-0.286,0
				c-29.08,37.6-34.687,69.809-31.458,94.475c0.116,0.882,0.243,1.753,0.379,2.615l0.003,0.026
				c4.353,27.403,19.636,45.34,24.07,50.022l-1.43,1.43l2.86,5.72h11.439l2.86-5.72l-1.43-1.43
				c1.617-1.677,5.191-5.508,8.998-11.209h0.006L742.061,5503.834z"/>
			<path fill="#C23824" d="M713.021,5395.868c6.197,8.025,11.458,15.937,15.668,23.449c-4.317-1.317-9.904-2.577-15.403-2.534
				c-6.107,0.044-12.074,1.688-16.317,3.205C703.112,5408.898,709.01,5401.058,713.021,5395.868z"/>
			<path fill="#D7DCDE" d="M707.302,5550.299h11.439l1.43,101.524h-17.159L707.302,5550.299z"/>
			<path fill="#F7F7F7" d="M707.123,5550.478h5.72l-1.251,108.495h-8.579L707.123,5550.478z"/>
			<rect x="697" y="5434" fill="#FFF55B" width="30" height="21"/>
		</g>
		<rect x="678" y="5489" fill="#FFFFFF" width="71" height="206"/>
		<rect x="662" y="5467" fill="#E74C3C" width="102" height="22"/>
		<rect x="678" y="5518" fill="#E74C3C" width="71" height="21"/>
		<rect x="678" y="5562" fill="#E74C3C" width="71" height="21"/>
		<circle fill="#E74C3C" cx="713.016" cy="5388.821" r="7.134"/>
		<rect x="712" y="5366" fill="#E74C3C" width="2" height="30"/>
		<linearGradient id="SVGID_3_" gradientUnits="userSpaceOnUse" x1="587.5" y1="4503" x2="587.5" y2="1370">
			<stop  offset="0" style="stop-color:#6DCFF6"/>
			<stop  offset="0.0653" style="stop-color:#61B8DB"/>
			<stop  offset="0.2139" style="stop-color:#4787A2"/>
			<stop  offset="0.3581" style="stop-color:#315F73"/>
			<stop  offset="0.4944" style="stop-color:#203F4E"/>
			<stop  offset="0.6207" style="stop-color:#142834"/>
			<stop  offset="0.7334" style="stop-color:#0D1B24"/>
			<stop  offset="0.8214" style="stop-color:#0A161E"/>
		</linearGradient>
		<rect y="1370" opacity="0.9" fill="url(#SVGID_3_)" width="1175" height="3133"/>
		<linearGradient id="SVGID_4_" gradientUnits="userSpaceOnUse" x1="590" y1="3713" x2="590" y2="1370">
			<stop  offset="0" style="stop-color:#6DCFF6;stop-opacity:0"/>
			<stop  offset="0.0653" style="stop-color:#61B8DB;stop-opacity:0.0795"/>
			<stop  offset="0.2139" style="stop-color:#4787A2;stop-opacity:0.2605"/>
			<stop  offset="0.3581" style="stop-color:#315F73;stop-opacity:0.436"/>
			<stop  offset="0.4944" style="stop-color:#203F4E;stop-opacity:0.6019"/>
			<stop  offset="0.6207" style="stop-color:#142834;stop-opacity:0.7556"/>
			<stop  offset="0.7334" style="stop-color:#0D1B24;stop-opacity:0.8929"/>
			<stop  offset="0.8214" style="stop-color:#0A161E"/>
		</linearGradient>
		<rect x="5" y="1370" fill="url(#SVGID_4_)" width="1170" height="2343"/>
		<rect fill="#0A161E" width="1175" height="1407"/>
		<rect x="608" y="5694" fill="#27AE60" width="351" height="17"/>
		<path fill="#D7DCDE" d="M701.593,4556.417h11.439l1.43,101.524h-17.159L701.593,4556.417z"/>
		<path fill="#F7F7F7" d="M701.414,4556.596h5.72l-1.251,108.495h-8.579L701.414,4556.596z"/>
		<g>
			<path fill="#E94B35" d="M734.287,4367.515c7.168-25.866,5.735-62.986-28.897-107.823c-0.197,0.249-0.084,0.25-0.286,0
				c-29.08,37.6-34.687,69.808-31.458,94.474c0.116,0.882,0.243,1.753,0.379,2.616l0.003,0.025
				c4.353,27.403,19.636,45.34,24.07,50.023l-1.43,1.43l2.86,5.72h11.439l2.86-5.72l-1.43-1.43
				c1.617-1.677,5.191-5.508,8.998-11.209h0.006L734.287,4367.515z"/>
			<path fill="#C23824" d="M705.247,4259.549c6.197,8.024,11.458,15.937,15.668,23.449c-4.317-1.317-9.904-2.577-15.403-2.534
				c-6.107,0.044-12.074,1.688-16.317,3.205C695.337,4272.578,701.236,4264.738,705.247,4259.549z"/>
			<path fill="#D7DCDE" d="M699.527,4413.979h11.439l1.43,101.524h-17.159L699.527,4413.979z"/>
			<path fill="#F7F7F7" d="M699.348,4414.158h5.72l-1.251,108.495h-8.579L699.348,4414.158z"/>
			<rect x="689" y="4298" fill="#FFF55B" width="30" height="20"/>
		</g>
		<rect x="670" y="4339" fill="#FFFFFF" width="72" height="220"/>
		<rect x="670" y="4381" fill="#E74C3C" width="72" height="22"/>
		<rect x="670" y="4424" fill="#E74C3C" width="72" height="23"/>
		<circle fill="#E74C3C" cx="705.242" cy="4252.501" r="7.134"/>
		<rect x="704" y="4230" fill="#E74C3C" width="3" height="30"/>
		<path fill="#D7DCDE" d="M701.593,3214.685h11.439l1.43,101.524h-17.159L701.593,3214.685z"/>
		<path fill="#F7F7F7" d="M701.414,3214.864h5.72l-1.251,108.495h-8.579L701.414,3214.864z"/>
		<g>
			<path fill="#E94B35" d="M734.287,3025.781c7.168-25.866,5.735-62.986-28.897-107.823c-0.197,0.249-0.084,0.25-0.286,0
				c-29.08,37.6-34.687,69.808-31.458,94.474c0.116,0.882,0.243,1.753,0.379,2.615l0.003,0.026
				c4.353,27.403,19.636,45.34,24.07,50.023l-1.43,1.43l2.86,5.719h11.439l2.86-5.719l-1.43-1.43
				c1.617-1.677,5.191-5.508,8.998-11.209h0.006L734.287,3025.781z"/>
			<path fill="#C23824" d="M705.247,2917.816c6.197,8.025,11.458,15.936,15.668,23.449c-4.317-1.317-9.904-2.577-15.403-2.534
				c-6.107,0.044-12.074,1.687-16.317,3.205C695.337,2930.845,701.236,2923.005,705.247,2917.816z"/>
			<path fill="#D7DCDE" d="M699.527,3072.247h11.439l1.43,101.524h-17.159L699.527,3072.247z"/>
			<path fill="#F7F7F7" d="M699.348,3072.425h5.72l-1.251,108.495h-8.579L699.348,3072.425z"/>
			<rect x="689" y="2956" fill="#FFF55B" width="30" height="20"/>
		</g>
		<rect x="670" y="2997" fill="#FFFFFF" width="72" height="220"/>
		
			<rect x="781.644" y="3150.766" transform="matrix(0.8172 0.5764 -0.5764 0.8172 1971.9415 107.1748)" fill="#E74C3C" width="70.79" height="22.096"/>
		
			<rect x="564.364" y="3082.84" transform="matrix(0.6194 -0.7851 0.7851 0.6194 -2200.6279 1648.3131)" fill="#E74C3C" width="70.79" height="22.096"/>
		<circle fill="#E74C3C" cx="705.242" cy="2910.768" r="7.134"/>
		<rect x="704" y="2888" fill="#E74C3C" width="3" height="30"/>
		
			<rect x="588.955" y="1489.722" transform="matrix(0.908 -0.4189 0.4189 0.908 -614.197 400.9219)" fill="#FFFFFF" width="33.944" height="218.916"/>
		
			<rect x="790.276" y="1536.37" transform="matrix(0.9582 0.286 -0.286 0.9582 504.3669 -162.1162)" fill="#FFFFFF" width="33.944" height="218.916"/>
		<circle fill="#E74C3C" cx="780.532" cy="1384.082" r="7.134"/>
		
			<rect x="660.933" y="1347.876" transform="matrix(0.9443 -0.3291 0.3291 0.9443 -411.5362 293.6513)" fill="#E74C3C" width="1.637" height="29.462"/>
		<g>
			<path fill="#E94B35" d="M723.439,1381.84c-0.197,0.249-0.084,0.25-0.286,0c-29.08,37.6-34.687,69.808-31.458,94.474
				c0.116,0.882,0.243,1.753,0.379,2.615l0.003,0.026c4.353,27.403,19.636,45.34,24.07,50.023l-1.43,1.43l2.86,5.72h11.439
				l2.86-5.72l-1.43-1.43c1.617-1.677,5.191-5.508,8.998-11.209h0.006c0.782-1.303,1.441-1.224,6.725,4.06l12.869,12.869
				c2.587,2.587,4.919,2.222,4.917-0.645c-0.007-6.937-0.029-8.617-0.04-24.349c-0.01-11.907-2.744-16.117-11.585-20.042
				C759.504,1463.797,758.071,1426.676,723.439,1381.84z"/>
			<path fill="#E94B35" d="M729.015,1536.128h-11.439l-2.86-5.72l2.86-2.86h11.439l2.86,2.86L729.015,1536.128z M694.697,1490.37
				c-3.443,1.47-4.29,1.43-7.15,4.29c-2.86,2.86-4.008,7.955-4.001,15.62c0.007,12.173-0.016,13.854-0.011,24.343
				c0.003,3.429,2.958,1.128,6.872-2.786c7.483-7.483,13.115-13.473,17.461-13.4C713.607,1518.534,694.697,1490.37,694.697,1490.37z
				"/>
			<path fill="#C23824" d="M723.296,1381.697c6.197,8.025,11.458,15.936,15.668,23.449c-4.317-1.317-9.904-2.577-15.403-2.534
				c-6.107,0.044-12.074,1.687-16.317,3.204C713.386,1394.726,719.285,1386.886,723.296,1381.697z"/>
			<path fill="#D7DCDE" d="M717.576,1536.128h11.439l1.43,101.524h-17.159L717.576,1536.128z"/>
			<path fill="#F7F7F7" d="M717.397,1536.307h5.72l-1.251,108.495h-8.579L717.397,1536.307z"/>
			<rect x="708" y="1433" fill="#FFF55B" width="30" height="19"/>
		</g>
		<g>
			<path fill="#E94B35" d="M723.439,272.118c-0.197,0.249-0.084,0.25-0.286,0c-29.08,37.6-34.687,69.808-31.458,94.474
				c0.116,0.882,0.243,1.753,0.379,2.615l0.003,0.026c4.353,27.403,19.636,45.34,24.07,50.023l-1.43,1.43l2.86,5.72h11.439
				l2.86-5.72l-1.43-1.43c1.617-1.677,5.191-5.508,8.998-11.209h0.006c0.782-1.303,1.441-1.224,6.725,4.06l12.869,12.869
				c2.587,2.587,4.919,2.222,4.917-0.645c-0.007-6.937-0.029-8.617-0.04-24.349c-0.01-11.907-2.744-16.117-11.585-20.042
				C759.504,354.075,758.071,316.954,723.439,272.118z"/>
			<path fill="#E94B35" d="M729.015,426.405h-11.439l-2.86-5.72l2.86-2.86h11.439l2.86,2.86L729.015,426.405z M694.697,380.648
				c-3.443,1.47-4.29,1.43-7.15,4.29c-2.86,2.86-4.008,7.955-4.001,15.62c0.007,12.173-0.016,13.854-0.011,24.343
				c0.003,3.429,2.958,1.128,6.872-2.785c7.483-7.483,13.115-13.473,17.461-13.4C713.607,408.812,694.697,380.648,694.697,380.648z"
				/>
			<path fill="#C23824" d="M723.296,271.975c6.197,8.025,11.458,15.936,15.668,23.449c-4.317-1.317-9.904-2.577-15.403-2.534
				c-6.107,0.044-12.074,1.687-16.317,3.204C713.386,285.004,719.285,277.164,723.296,271.975z"/>
			<path fill="#D7DCDE" d="M717.576,426.405h11.439l1.43,101.524h-17.159L717.576,426.405z"/>
			<path fill="#F7F7F7" d="M717.397,426.584h5.72l-1.251,108.495h-8.579L717.397,426.584z"/>
			<rect x="708" y="324" fill="#FFF55B" width="30" height="18"/>
		</g>
		<path opacity="0.1" fill="#FFFFFF" enable-background="new    " d="M709.13,662.96c15.536-2.742,24.68-11.88,27.416-27.416
			c2.742,15.536,11.886,24.674,27.416,27.416c-15.529,2.748-24.674,11.88-27.416,27.416
			C733.81,674.84,724.665,665.707,709.13,662.96z"/>
		<path opacity="0.1" fill="#FFFFFF" enable-background="new    " d="M868.325,480.832c15.536-2.742,24.68-11.88,27.416-27.416
			c2.742,15.536,11.886,24.674,27.416,27.416c-15.53,2.748-24.674,11.88-27.416,27.416
			C893.005,492.712,883.861,483.579,868.325,480.832z"/>
		<path opacity="0.1" fill="#FFFFFF" enable-background="new    " d="M795.373,237.626c15.536-2.742,24.68-11.88,27.416-27.416
			c2.742,15.536,11.886,24.674,27.416,27.416c-15.529,2.748-24.674,11.88-27.416,27.416
			C820.053,249.506,810.908,240.374,795.373,237.626z"/>
		<path opacity="0.1" fill="#FFFFFF" enable-background="new    " d="M590.881,230.309c15.536-2.742,24.68-11.88,27.416-27.416
			c2.742,15.536,11.886,24.674,27.416,27.416c-15.53,2.748-24.674,11.88-27.416,27.416
			C615.561,242.189,606.416,233.057,590.881,230.309z"/>
		<path opacity="0.1" fill="#FFFFFF" enable-background="new    " d="M554.697,480.832c15.536-2.742,24.68-11.88,27.416-27.416
			c2.742,15.536,11.886,24.674,27.416,27.416c-15.529,2.748-24.674,11.88-27.416,27.416
			C579.377,492.712,570.233,483.579,554.697,480.832z"/>
		<text transform="matrix(1 0 0 1 173.3257 4408.6133)" fill="#FFFFFF" font-family="'Lato-Hairline'" font-size="49.1028">Step 1</text>
		<text transform="matrix(1 0 0 1 173.3257 4490.8623)" fill="#FFFFFF" font-family="'Lato-Light'" font-size="24.0046">We will do something awesome with you</text>
		<text transform="matrix(1 0 0 1 173.3257 3066.8809)" fill="#FFFFFF" font-family="'Lato-Hairline'" font-size="49.1028">Step 2</text>
		<text transform="matrix(1 0 0 1 173.3257 3149.1309)" fill="#FFFFFF" font-family="'Lato-Light'" font-size="24.0046">We will do something  different</text>
		<text transform="matrix(1 0 0 1 173.3257 1516.9297)" fill="#FFFFFF" font-family="'Lato-Hairline'" font-size="49.1028">Step 3</text>
		<text transform="matrix(1 0 0 1 173.3257 1599.1807)" fill="#FFFFFF" font-family="'Lato-Light'" font-size="24.0046">We will do something more</text>
		<text transform="matrix(1 0 0 1 173.3257 385.5908)" fill="#FFFFFF" font-family="'Lato-Hairline'" font-size="49.1028">Step 4</text>
		<text transform="matrix(1 0 0 1 173.3257 467.8418)" fill="#FFFFFF" font-family="'Lato-Light'" font-size="24.0046">We will let you reach the stars</text>
		<rect x="170" y="5572" fill="#E74C3C" width="376" height="66"/>
		<text transform="matrix(1 0 0 1 208.5161 5616.9297)" fill="#FFF55B" font-family="'Lato-Bold'" font-size="29.5961">3 -  2 - 1 - START</text>
		<circle fill="#C0392B" cx="476.554" cy="5605.738" r="19.397"/>
		<text transform="matrix(1 0 0 1 463.106 5612.7588)" fill="#FFF55B" font-family="'FontAwesome'" font-size="27.7131"></text>
		<circle fill="#C0392B" cx="424.996" cy="4391.673" r="19.397"/>
		<text transform="matrix(1 0 0 1 411.5483 4398.6934)" fill="#FFF55B" font-family="'FontAwesome'" font-size="27.7131"></text>
		<circle fill="#C0392B" cx="366.073" cy="3052.804" r="19.397"/>
		<text transform="matrix(1 0 0 1 352.6245 3059.8242)" fill="#FFF55B" font-family="'FontAwesome'" font-size="27.7131"></text>
		<circle fill="#C0392B" cx="372.21" cy="1497.474" r="19.397"/>
		<text transform="matrix(1 0 0 1 358.7632 1504.4932)" fill="#FFF55B" font-family="'FontAwesome'" font-size="27.7131"></text>
		<circle fill="#C0392B" cx="392.261" cy="366.065" r="19.397"/>
		<text transform="matrix(1 0 0 1 378.813 373.085)" fill="#FFF55B" font-family="'FontAwesome'" font-size="27.7131"></text>
	</g>
</g>
</svg>
